<svg xmlns="http://www.w3.org/2000/svg" viewBox="0 0 312 210" width="312" height="210" role="img" aria-label="A desktop landing page layout">
  <rect width="312" height="210" fill="#e9ecf3"/>
  <rect x="16" y="16" width="280" height="178" rx="8" fill="#ffffff"/>
  <rect x="16" y="16" width="280" height="22" rx="8" fill="#f6f7fa"/>
  <rect x="16" y="30" width="280" height="8" fill="#f6f7fa"/>
  <circle cx="30" cy="27" r="3.5" fill="#3458ff"/>
  <rect x="42" y="24" width="34" height="5" rx="2" fill="#dfe0eb"/>
  <g fill="#dfe0eb"><rect x="196" y="24" width="20" height="5" rx="2"/><rect x="224" y="24" width="20" height="5" rx="2"/></g>
  <rect x="256" y="21" width="30" height="11" rx="5" fill="#101010"/>
  <rect x="34" y="58" width="120" height="11" rx="4" fill="#101010" opacity="0.85"/>
  <rect x="34" y="76" width="86" height="11" rx="4" fill="#101010" opacity="0.85"/>
  <rect x="34" y="100" width="130" height="5" rx="2" fill="#9a9dab"/>
  <rect x="34" y="111" width="104" height="5" rx="2" fill="#9a9dab"/>
  <rect x="34" y="132" width="60" height="18" rx="9" fill="#3458ff"/>
  <rect x="102" y="132" width="48" height="18" rx="9" fill="#ffffff" stroke="#dfe0eb"/>
  <rect x="184" y="58" width="96" height="92" rx="8" fill="#2a2a33"/>
  <circle cx="232" cy="104" r="16" fill="#ffffff" opacity="0.14"/>
  <path d="M227 96 l14 8 -14 8 z" fill="#ffffff" opacity="0.9"/>
  <g fill="#dfe0eb"><rect x="34" y="168" width="42" height="4" rx="2"/><rect x="86" y="168" width="42" height="4" rx="2"/><rect x="138" y="168" width="42" height="4" rx="2"/></g>
</svg>
