<svg xmlns="http://www.w3.org/2000/svg" viewBox="0 0 312 210" width="312" height="210" role="img" aria-label="A product grid and a checkout panel">
  <rect width="312" height="210" fill="#e9ecf3"/>
  <rect x="16" y="16" width="176" height="178" rx="8" fill="#ffffff"/>
  <rect x="30" y="30" width="52" height="6" rx="3" fill="#101010" opacity="0.8"/>
  <g>
    <rect x="30" y="48" width="70" height="58" rx="6" fill="#f6f7fa" stroke="#dfe0eb"/>
    <rect x="42" y="58" width="46" height="30" rx="4" fill="#2a2a33"/>
    <rect x="42" y="94" width="30" height="4" rx="2" fill="#9a9dab"/>
    <rect x="110" y="48" width="70" height="58" rx="6" fill="#f6f7fa" stroke="#dfe0eb"/>
    <rect x="122" y="58" width="46" height="30" rx="4" fill="#3458ff" opacity="0.7"/>
    <rect x="122" y="94" width="34" height="4" rx="2" fill="#9a9dab"/>
    <rect x="30" y="116" width="70" height="58" rx="6" fill="#f6f7fa" stroke="#dfe0eb"/>
    <rect x="42" y="126" width="46" height="30" rx="4" fill="#cdd5fb"/>
    <rect x="42" y="162" width="26" height="4" rx="2" fill="#9a9dab"/>
    <rect x="110" y="116" width="70" height="58" rx="6" fill="#f6f7fa" stroke="#dfe0eb"/>
    <rect x="122" y="126" width="46" height="30" rx="4" fill="#2a2a33" opacity="0.6"/>
    <rect x="122" y="162" width="38" height="4" rx="2" fill="#9a9dab"/>
  </g>
  <rect x="204" y="16" width="92" height="178" rx="8" fill="#ffffff"/>
  <rect x="216" y="32" width="42" height="6" rx="3" fill="#101010" opacity="0.8"/>
  <g fill="#f6f7fa" stroke="#dfe0eb"><rect x="216" y="50" width="68" height="16" rx="4"/><rect x="216" y="72" width="68" height="16" rx="4"/><rect x="216" y="94" width="68" height="16" rx="4"/></g>
  <line x1="216" y1="124" x2="284" y2="124" stroke="#dfe0eb"/>
  <rect x="216" y="134" width="30" height="5" rx="2" fill="#9a9dab"/>
  <rect x="258" y="132" width="26" height="8" rx="3" fill="#101010" opacity="0.85"/>
  <rect x="216" y="156" width="68" height="20" rx="10" fill="#3458ff"/>
</svg>
