<svg xmlns="http://www.w3.org/2000/svg" viewBox="0 0 312 210" width="312" height="210" role="img" aria-label="A dashboard with a chart and data rows">
  <rect width="312" height="210" fill="#e9ecf3"/>
  <rect x="16" y="16" width="280" height="178" rx="8" fill="#ffffff"/>
  <rect x="16" y="16" width="66" height="178" rx="8" fill="#f6f7fa"/>
  <rect x="76" y="16" width="6" height="178" fill="#f6f7fa"/>
  <circle cx="32" cy="32" r="4" fill="#3458ff"/>
  <g fill="#dfe0eb"><rect x="28" y="52" width="42" height="5" rx="2"/><rect x="28" y="66" width="34" height="5" rx="2"/><rect x="28" y="80" width="38" height="5" rx="2"/></g>
  <rect x="28" y="94" width="42" height="5" rx="2" fill="#3458ff" opacity="0.5"/>
  <g fill="#f6f7fa" stroke="#dfe0eb"><rect x="96" y="32" width="60" height="34" rx="6"/><rect x="164" y="32" width="60" height="34" rx="6"/><rect x="232" y="32" width="50" height="34" rx="6"/></g>
  <g fill="#101010" opacity="0.8"><rect x="104" y="42" width="22" height="7" rx="3"/><rect x="172" y="42" width="26" height="7" rx="3"/><rect x="240" y="42" width="18" height="7" rx="3"/></g>
  <g fill="#9a9dab"><rect x="104" y="54" width="34" height="3" rx="1.5"/><rect x="172" y="54" width="30" height="3" rx="1.5"/><rect x="240" y="54" width="28" height="3" rx="1.5"/></g>
  <polyline points="104,150 130,132 156,140 182,112 208,120 234,96 260,104 282,86" fill="none" stroke="#3458ff" stroke-width="2.5" stroke-linecap="round" stroke-linejoin="round"/>
  <path d="M104 150 130 132 156 140 182 112 208 120 234 96 260 104 282 86 282 168 104 168 z" fill="#3458ff" opacity="0.08"/>
  <g stroke="#dfe0eb" stroke-width="1"><line x1="104" y1="168" x2="282" y2="168"/></g>
  <g fill="#dfe0eb"><rect x="104" y="180" width="50" height="4" rx="2"/><rect x="164" y="180" width="50" height="4" rx="2"/><rect x="224" y="180" width="50" height="4" rx="2"/></g>
</svg>
